<svg width="79" height="80" viewBox="0 0 79 80" fill="none" xmlns="http://www.w3.org/2000/svg">
<path d="M47.7774 29.4373L44.9303 29.0229C44.843 29.0229 44.7557 29.0229 44.7557 29.1099L43.5504 30.6558C43.4816 30.7567 43.4507 30.8785 43.4631 30.9998C43.4631 31.0868 43.3758 31.2609 43.2927 31.1739L42.3409 30.9169C42.1705 30.9169 41.9959 30.9169 41.9253 31.0868L38.0433 36.0602C37.956 36.1473 37.8687 36.1473 37.6983 36.1473L36.2311 35.4593C36.1689 35.4203 36.0968 35.3996 36.0233 35.3996C35.9498 35.3996 35.8777 35.4203 35.8155 35.4593L35.0009 35.9815C34.939 36.0215 34.8668 36.0427 34.793 36.0427C34.7193 36.0427 34.6471 36.0215 34.5852 35.9815L34.2403 35.8116C34.1841 35.7863 34.1233 35.7729 34.0616 35.7722C34 35.7716 33.9389 35.7838 33.8823 35.8079C33.8256 35.8321 33.7746 35.8677 33.7325 35.9126C33.6903 35.9575 33.658 36.0106 33.6376 36.0685L33.3757 37.2704C33.3446 37.3981 33.353 37.5321 33.3998 37.6549C33.4465 37.7777 33.5294 37.8835 33.6376 37.9584L34.3275 38.3729L36.1355 39.4919L37 40.0058C37.1214 40.0769 37.2624 40.1071 37.4024 40.0922C37.5423 40.0773 37.6737 40.0179 37.7773 39.9229L39.2403 38.6298C39.3663 38.5583 39.512 38.5292 39.6559 38.5469L40.0716 38.8039C40.242 38.8909 40.4165 38.8909 40.4872 38.7169L41.2603 38.0289C41.3135 37.9755 41.3812 37.9388 41.455 37.9233C41.5289 37.9079 41.6057 37.9143 41.6759 37.9418L42.7981 38.4599C42.8846 38.4882 42.9768 38.4951 43.0666 38.4799C43.1564 38.4647 43.2411 38.428 43.3135 38.3729L43.833 37.6849L47.715 32.7115C47.8854 32.4504 47.7981 32.1064 47.4532 32.1064L46.6385 31.924C46.464 31.924 46.3808 31.6671 46.464 31.5096L47.8439 29.8767C48.035 29.7026 47.9478 29.4373 47.7774 29.4373Z" fill="white"/>
<path d="M34.8389 39.5085C34.7516 39.4215 34.6685 39.5085 34.6685 39.5955L35.0841 40.7104V40.9715L34.7391 42.4304C34.7332 42.4776 34.738 42.5256 34.7531 42.5708C34.7682 42.616 34.7932 42.6572 34.8264 42.6915L35.8613 43.4624C35.9091 43.504 35.9703 43.527 36.0338 43.527C36.0972 43.527 36.1585 43.504 36.2063 43.4624L37.3285 42.5174C37.3621 42.4844 37.4027 42.4595 37.4473 42.4444C37.492 42.4293 37.5394 42.4245 37.5862 42.4304L38.7957 42.2605C38.8788 42.2605 38.8788 42.1734 38.7957 42.0864L34.8389 39.5085Z" fill="white"/>
<path d="M34.4938 43.2052C34.4792 43.1847 34.4599 43.168 34.4375 43.1564C34.4151 43.1449 34.3902 43.1388 34.365 43.1388C34.3397 43.1388 34.3149 43.1449 34.2925 43.1564C34.2701 43.168 34.2507 43.1847 34.2361 43.2052L33.3716 43.6197C33.3603 43.6197 33.3492 43.6219 33.3388 43.6264C33.3285 43.6308 33.3191 43.6373 33.3113 43.6454C33.3036 43.6535 33.2975 43.6632 33.2936 43.6737C33.2897 43.6843 33.2879 43.6955 33.2885 43.7067L31.3891 48.3486H31.4763L31.892 48.1786V48.2615L30.5121 50.4995C30.5121 50.5866 30.5121 50.5866 30.5952 50.5866L35.4248 45.6836C35.5121 45.6836 35.5121 45.5966 35.5121 45.5096L35.5994 44.2206C35.5994 44.1336 35.5994 44.0507 35.5121 44.0507L34.4938 43.2052Z" fill="white"/>
<path d="M29.6226 79.2252L27.7107 75.6567L31.0357 73.3566L31.6758 74.2476L30.6243 74.9563C30.4446 75.0851 30.2573 75.2027 30.0632 75.3086C29.8877 75.4081 29.7042 75.4927 29.5145 75.5614L33.089 76.4235L32.8437 77.4347L29.261 76.5685C29.3551 76.6648 29.4425 76.7673 29.5229 76.8752C29.6018 76.9788 29.6766 77.0907 29.7514 77.2109L29.98 77.6254L30.5869 78.7361L29.6226 79.2252Z" fill="#FFCD1E"/>
<path d="M13.9618 65.5898C14.5313 64.9391 15.4373 64.8728 16.2478 65.5898L17.9103 67.0445L14.5853 70.8284L13.2636 69.639C12.3991 68.8847 12.0832 68.0931 12.69 67.3968C12.8208 67.2332 12.9968 67.1115 13.1963 67.0466C13.3957 66.9818 13.6099 66.9767 13.8122 67.0321C13.663 66.8125 13.5962 66.5476 13.6236 66.2838C13.651 66.02 13.7707 65.7742 13.9618 65.5898ZM15.1505 68.7479L14.4772 68.1635C14.0616 67.7947 13.7041 67.6911 13.488 67.9397C13.2719 68.1884 13.4215 68.5158 13.8496 68.8847L14.5188 69.469L15.1505 68.7479ZM14.6102 66.2944C14.3151 66.6342 14.4731 67.0487 14.9386 67.4548L15.7033 68.1179L16.572 67.1274L15.8072 66.4643C15.3417 66.0581 14.9095 65.9504 14.6102 66.2944Z" fill="white"/>
<path d="M6.47205 62.1333L8.76634 60.3926C9.82204 59.5886 11.0315 59.6052 11.8088 60.6206C12.586 61.636 12.2784 62.8047 11.2227 63.6046L8.92843 65.3453L8.35071 64.591L10.7364 62.7757C10.8652 62.6976 10.9761 62.5933 11.0619 62.4697C11.1477 62.346 11.2066 62.2058 11.2346 62.0581C11.2626 61.9104 11.2591 61.7584 11.2245 61.6121C11.1898 61.4658 11.1248 61.3284 11.0335 61.2087C10.9421 61.0891 10.8267 60.9899 10.6945 60.9176C10.5623 60.8453 10.4163 60.8015 10.2661 60.789C10.1158 60.7766 9.9646 60.7957 9.82224 60.8452C9.67988 60.8947 9.54954 60.9735 9.43966 61.0765L7.04978 62.8876L6.47205 62.1333Z" fill="white"/>
<path d="M8.83717 56.277L4.38161 58.6186L3.93689 57.7897L8.40077 55.4357L8.83717 56.277Z" fill="white"/>
<path d="M5.10868 49.8655L6.01476 49.5546L6.98734 52.3605L2.22005 54.0183L1.90833 53.1189L5.76538 51.7927L5.10868 49.8655Z" fill="white"/>
<path d="M2.1662 42.6542C3.5461 42.4636 4.78883 43.2552 5.01743 44.9088L5.24603 46.5666L0.258454 47.2505L0.0340098 45.5927C-0.198744 43.8934 0.790461 42.8407 2.1662 42.6542ZM2.29505 43.595C2.0929 43.6131 1.8966 43.6722 1.71822 43.7688C1.53985 43.8653 1.38315 43.9972 1.25779 44.1564C1.13244 44.3155 1.04106 44.4986 0.989285 44.6943C0.937506 44.89 0.92642 45.0941 0.956712 45.2942L1.07309 46.1646L4.16539 45.7501L4.04485 44.8839C4.02024 44.6832 3.95494 44.4895 3.85293 44.3146C3.75091 44.1398 3.61431 43.9875 3.45143 43.8669C3.28854 43.7464 3.10276 43.6601 2.9054 43.6133C2.70804 43.5666 2.50321 43.5604 2.30335 43.595H2.29505Z" fill="white"/>
<path d="M0.728422 30.2661L1.6719 30.4526L1.41421 31.7374L5.41674 32.5332L5.2297 33.4657L1.22717 32.67L0.969482 33.9506L0.0301514 33.7641L0.728422 30.2661Z" fill="white"/>
<path d="M3.47941 22.6446L8.12617 24.5884L7.75626 25.467L5.87345 24.6796L5.04219 26.6523L6.925 27.4398L6.55508 28.3143L1.90833 26.3705L2.27823 25.4919L4.15689 26.2793L4.98815 24.3066L3.10949 23.5191L3.47941 22.6446Z" fill="white"/>
<path d="M6.91265 18.6616L7.80625 19.2667L8.80793 17.7913L9.60178 18.3259L8.60011 19.8013L9.49372 20.4064L10.699 18.6367L11.4929 19.1714L9.75141 21.7285L5.59509 18.9103L7.33243 16.3531L8.12629 16.8919L6.91265 18.6616Z" fill="white"/>
<path d="M16.9586 13.3856L13.8746 9.41107L16.3269 7.52118L16.9129 8.27548L15.2171 9.58514L15.8821 10.4389L17.2953 9.34475L17.8855 10.1032L16.464 11.2015L17.7109 12.8096L16.9586 13.3856Z" fill="white"/>
<path d="M23.2762 3.57556L24.5688 6.14101C25.1631 7.32219 24.9262 8.50337 23.7832 9.07945C22.6402 9.65554 21.543 9.13748 20.9486 7.95215L19.656 5.39914L20.5081 4.98469L21.8547 7.65375C21.9191 7.77974 22.0078 7.89186 22.1156 7.98369C22.2235 8.07551 22.3484 8.14526 22.4833 8.18894C22.6182 8.23262 22.7604 8.24938 22.9018 8.23826C23.0432 8.22715 23.181 8.18837 23.3073 8.12414C23.4337 8.05992 23.5461 7.97151 23.6382 7.86396C23.7303 7.75641 23.8002 7.63183 23.8441 7.49732C23.8879 7.36281 23.9047 7.22102 23.8935 7.08004C23.8824 6.93905 23.8435 6.80164 23.7791 6.67565L22.4324 4.00244L23.2762 3.57556Z" fill="white"/>
<path d="M30.4292 1.22989L30.6827 2.14997L29.4358 2.49811L30.5206 6.42294L29.5979 6.67161L28.5173 2.75092L27.2704 3.09906L27.0127 2.17484L30.4292 1.22989Z" fill="white"/>
<path d="M38.3761 0.25174L38.5839 3.11558C38.6795 4.43353 38.002 5.43236 36.7261 5.52354C35.4501 5.61472 34.6479 4.72365 34.544 3.40156L34.3362 0.541853L35.288 0.471397L35.5 3.45543C35.4928 3.60756 35.518 3.75949 35.5739 3.90119C35.6299 4.04289 35.7154 4.17115 35.8247 4.27751C35.934 4.38388 36.0647 4.46593 36.2081 4.51825C36.3516 4.57057 36.5045 4.59199 36.6568 4.58107C36.8092 4.57016 36.9575 4.52717 37.0919 4.45494C37.2264 4.3827 37.344 4.28287 37.4369 4.16202C37.5298 4.04116 37.596 3.90204 37.6311 3.75381C37.6662 3.60559 37.6694 3.45163 37.6405 3.30209L37.4243 0.318051L38.3761 0.25174Z" fill="white"/>
<path d="M44.5606 5.71088L43.6587 3.90388L43.0893 3.83343L42.8773 5.49122L41.9297 5.36689L42.5739 0.393494L44.3487 0.621442C45.6413 0.787222 46.1483 1.56224 46.0112 2.52791C45.9712 2.87976 45.8193 3.20962 45.5777 3.46915C45.3362 3.72869 45.0176 3.90428 44.6687 3.97019L45.6995 5.86423L44.5606 5.71088ZM43.214 2.88434L44.1616 3.00453C44.2619 3.02626 44.3655 3.02777 44.4663 3.00896C44.5672 2.99015 44.6632 2.95141 44.7488 2.89503C44.8344 2.83864 44.9078 2.76574 44.9647 2.68063C45.0216 2.59551 45.0609 2.4999 45.0802 2.39943C45.0931 2.29553 45.0838 2.19006 45.0527 2.09004C45.0217 1.99002 44.9696 1.89774 44.9 1.81934C44.8305 1.74093 44.7449 1.67819 44.6491 1.63529C44.5534 1.59239 44.4495 1.57032 44.3445 1.57053L43.3969 1.45034L43.214 2.88434Z" fill="white"/>
<path d="M50.8492 3.01195L50.5125 4.03565L52.2083 4.59515L51.909 5.5028L50.2132 4.94329L49.8766 5.96698L51.9132 6.63839L51.6264 7.54603L48.6879 6.57622L50.2631 1.80591L53.2058 2.77158L52.9065 3.68336L50.8492 3.01195Z" fill="white"/>
<path d="M64.2201 7.79494L64.4944 11.8317L60.5002 12.5611L60.284 11.4794L61.5309 11.2639C61.7595 11.2224 61.9798 11.1893 62.1876 11.1727C62.3882 11.1561 62.5897 11.1561 62.7903 11.1727L59.8809 8.9181L60.5209 8.0892L63.4304 10.3438C63.3834 10.2183 63.3459 10.0894 63.3181 9.95836C63.2863 9.82192 63.2641 9.68344 63.2516 9.54391C63.2516 9.40715 63.2184 9.24966 63.2059 9.08388L63.1103 7.84053L64.2201 7.79494Z" fill="#FFCD1E"/>
<path d="M70.9948 26.0719L72.0422 24.3478L71.8011 23.8297L70.2799 24.5343L69.8643 23.6722L74.4362 21.5585L75.1927 23.1749C75.7413 24.3519 75.3547 25.1933 74.4736 25.6036C74.1535 25.7577 73.7922 25.8054 73.4429 25.7398C73.0936 25.6742 72.7745 25.4986 72.5326 25.2389L71.4769 27.1205L70.9948 26.0719ZM72.6573 23.4277L73.0729 24.2898C73.108 24.3862 73.1621 24.4746 73.232 24.5499C73.3019 24.6251 73.3863 24.6855 73.4801 24.7277C73.5739 24.7698 73.6752 24.7927 73.778 24.7951C73.8808 24.7975 73.9831 24.7793 74.0788 24.7415C74.1725 24.6964 74.2556 24.6319 74.3225 24.5524C74.3894 24.4729 74.4386 24.3801 74.4669 24.2802C74.4952 24.1804 74.5019 24.0756 74.4866 23.9729C74.4712 23.8703 74.4342 23.772 74.378 23.6847L73.9624 22.8226L72.6573 23.4277Z" fill="white"/>
<path d="M76.003 34.0876C75.4973 34.1982 74.9701 34.157 74.4878 33.9693C74.0055 33.7816 73.5898 33.4558 73.2929 33.0329C72.996 32.61 72.8312 32.1089 72.8194 31.5928C72.8076 31.0767 72.9492 30.5687 73.2265 30.1327C73.5037 29.6967 73.9041 29.3523 74.3773 29.1428C74.8505 28.9334 75.3753 28.8683 75.8855 28.9557C76.3957 29.0431 76.8686 29.2792 77.2445 29.6341C77.6205 29.9891 77.8826 30.447 77.998 30.9502C78.1505 31.6301 78.026 32.3425 77.6519 32.9308C77.2778 33.5191 76.6847 33.9352 76.003 34.0876V34.0876ZM75.791 33.1593C76.1101 33.0832 76.3995 32.9146 76.6227 32.6749C76.846 32.4351 76.9931 32.1349 77.0455 31.8119C77.0979 31.489 77.0534 31.1578 76.9174 30.86C76.7815 30.5623 76.5602 30.3113 76.2815 30.1387C76.0028 29.966 75.6791 29.8795 75.3512 29.89C75.0233 29.9004 74.7058 30.0074 74.4387 30.1974C74.1717 30.3874 73.9669 30.652 73.8503 30.9578C73.7338 31.2636 73.7105 31.597 73.7835 31.9159C73.8315 32.1303 73.9217 32.333 74.049 32.5124C74.1762 32.6917 74.3379 32.844 74.5247 32.9604C74.7115 33.0769 74.9196 33.1552 75.137 33.1907C75.3544 33.2263 75.5767 33.2184 75.791 33.1675V33.1593Z" fill="white"/>
<path d="M75.2174 41.3362L74.3529 41.7134C73.958 41.2688 73.7341 40.699 73.7212 40.1053C73.7157 39.7597 73.7786 39.4164 73.9061 39.095C74.0337 38.7736 74.2236 38.4804 74.4648 38.2322C74.706 37.984 74.9939 37.7856 75.312 37.6483C75.6301 37.511 75.9723 37.4375 76.3188 37.4321C76.6654 37.4266 77.0097 37.4893 77.332 37.6166C77.6543 37.7438 77.9483 37.9331 78.1973 38.1736C78.4462 38.4141 78.6452 38.7012 78.7829 39.0184C78.9205 39.3356 78.9942 39.6768 78.9997 40.0224C79.0087 40.6148 78.8053 41.1909 78.4261 41.647L77.5491 41.2989C77.8708 40.9653 78.0471 40.5183 78.0396 40.0556C78.0233 39.7869 77.9417 39.5262 77.8018 39.296C77.6619 39.0658 77.4678 38.8731 77.2364 38.7344C77.0051 38.5957 76.7433 38.5153 76.4738 38.5002C76.2043 38.485 75.9351 38.5355 75.6896 38.6473C75.444 38.7591 75.2295 38.9288 75.0644 39.1418C74.8994 39.3548 74.7888 39.6047 74.7424 39.8698C74.6959 40.135 74.7148 40.4074 74.7976 40.6637C74.8804 40.9199 75.0245 41.1521 75.2174 41.3404V41.3362Z" fill="white"/>
<path d="M72.7445 48.7051L72.9814 47.5239L75.5085 46.1024L73.3472 45.6879L73.5342 44.7554L78.4761 45.7294L78.289 46.6619L76.2441 46.2474L77.9482 48.386L77.7113 49.563L75.7661 47.0017L72.7445 48.7051Z" fill="white"/>
<path d="M75.2589 53.8899L74.2572 53.4754L73.5797 55.1332L72.6944 54.7727L73.3678 53.1149L72.3703 52.7004L71.539 54.6773L70.6495 54.3168L71.8175 51.4571L76.485 53.3552L75.3129 56.2149L74.4276 55.8544L75.2589 53.8899Z" fill="white"/>
<path d="M71.5767 62.7094L70.787 62.1789L71.4977 61.0806L68.0687 58.8757L68.5841 58.08L72.0131 60.2848L72.7279 59.1865L73.5343 59.7046L71.5767 62.7094Z" fill="white"/>
<path d="M63.8708 66.1908C63.2182 65.5691 63.1767 64.5786 64.0952 63.6253C64.3521 63.3463 64.6643 63.1234 65.012 62.9707C65.3597 62.8181 65.7353 62.739 66.1152 62.7384L66.3895 63.6626C66.0913 63.6541 65.7945 63.7064 65.5173 63.8161C65.24 63.9258 64.9881 64.0908 64.7769 64.3009C64.3197 64.7775 64.2324 65.221 64.4859 65.4655C64.7395 65.71 65.1177 65.5733 65.6414 65.1712C66.7844 64.2967 67.5076 64.3175 68.0562 64.8438C68.6048 65.3702 68.7254 66.4187 67.8608 67.3305C67.4329 67.7899 66.8558 68.0835 66.2316 68.1594L65.9157 67.3015C66.3902 67.242 66.8301 67.0227 67.1626 66.6798C67.5159 66.3151 67.7195 65.8965 67.4286 65.6147C67.1376 65.3329 66.8883 65.4986 66.2981 65.9338C65.4294 66.5596 64.648 66.9368 63.8708 66.1908Z" fill="white"/>
<path d="M62.0172 70.99L61.3938 70.1113L59.9349 71.1392L59.3821 70.36L60.841 69.3322L60.2175 68.4535L58.4636 69.6969L57.9108 68.9136L60.442 67.1314L63.3514 71.2303L60.8202 73.0166L60.2674 72.2333L62.0172 70.99Z" fill="white"/>
<path d="M52.6861 72.652L54.6188 71.794L54.569 70.7703L55.5498 70.3559L55.7036 75.7893L54.9139 76.1375L50.9779 72.3784L51.9546 71.964L52.6861 72.652ZM53.4094 73.3772L54.7726 74.7366L54.6729 72.8177L53.4094 73.3772Z" fill="white"/>
<path d="M46.7052 78.6657L46.4807 77.7332L47.7567 77.4307L46.8132 73.4727L47.7401 73.253L48.6836 77.211L49.9595 76.9085L50.184 77.8368L46.7052 78.6657Z" fill="white"/>
</svg>
