<svg width="49" height="49" viewBox="0 0 49 49" fill="none" xmlns="http://www.w3.org/2000/svg">
<rect x="0.481445" y="0.771973" width="47.7778" height="47.384" fill="#323238"/>
<path d="M36.4603 24.5361C36.4603 17.9532 31.0807 12.618 24.4431 12.618C17.8055 12.618 12.4259 17.9532 12.4259 24.5361C12.4259 30.4859 16.8197 35.4161 22.5654 36.31V27.9812H19.5142V24.5361H22.5654V21.9104C22.5654 18.9239 24.3586 17.2735 27.1047 17.2735C28.4191 17.2735 29.7945 17.5063 29.7945 17.5063V20.4393H28.2783C26.7855 20.4393 26.3208 21.3587 26.3208 22.3015V24.5361H29.6537L29.1209 27.9812H26.3208V36.31C32.0665 35.4161 36.4603 30.4859 36.4603 24.5361Z" fill="white"/>
</svg>
