<svg width="16" height="17" viewBox="0 0 16 17" fill="none" xmlns="http://www.w3.org/2000/svg">
<g clip-path="url(#clip0_61385:198)">
<path d="M7.92058 1.05432C3.54688 1.05432 0 4.60417 0 8.98324C0 12.4857 2.26953 15.4571 5.41835 16.5064C5.81443 16.5795 5.959 16.3347 5.959 16.1244C5.959 15.9359 5.95207 15.4373 5.94811 14.7759C3.74492 15.2547 3.27953 13.7128 3.27953 13.7128C2.92009 12.7967 2.40024 12.5528 2.40024 12.5528C1.68036 12.0612 2.45371 12.0711 2.45371 12.0711C3.24883 12.1274 3.6667 12.8885 3.6667 12.8885C4.3737 14.0997 5.52133 13.7503 5.97286 13.5469C6.04416 13.0346 6.24913 12.6851 6.47588 12.4867C4.71729 12.2863 2.86761 11.6061 2.86761 8.56863C2.86761 7.70289 3.17655 6.99509 3.68353 6.4403C3.60134 6.23991 3.33003 5.43339 3.76076 4.34257C3.76076 4.34257 4.42618 4.12935 5.9392 5.15501C6.57094 4.9793 7.24824 4.89144 7.92256 4.88848C8.5949 4.89243 9.27319 4.9793 9.90592 5.156C11.418 4.13033 12.0824 4.34356 12.0824 4.34356C12.5141 5.43537 12.2428 6.2409 12.1616 6.44129C12.6696 6.99608 12.9755 7.70388 12.9755 8.56962C12.9755 11.615 11.1239 12.2853 9.35933 12.4818C9.64352 12.7266 9.89701 13.2103 9.89701 13.9497C9.89701 15.0099 9.88711 15.8648 9.88711 16.1244C9.88711 16.3366 10.0297 16.5834 10.4317 16.5055C13.5756 15.4551 15.8431 12.4847 15.8431 8.98324C15.8431 4.60417 12.2963 1.05432 7.92058 1.05432Z" fill="#C4C4CC"/>
</g>
<defs>
<clipPath id="clip0_61385:198">
<rect width="15.8431" height="15.7947" fill="white" transform="translate(0 0.889435)"/>
</clipPath>
</defs>
</svg>
