<svg width="49" height="49" viewBox="0 0 49 49" fill="none" xmlns="http://www.w3.org/2000/svg">
<rect x="0.740723" y="0.771973" width="47.7778" height="47.384" fill="#323238"/>
<g clip-path="url(#clip0_61385:216)">
<path d="M23.3595 36.3099C22.2577 36.3099 20.9706 36.3039 19.7006 36.2319C17.8423 36.2733 16.0425 35.5862 14.6918 34.3197C13.4146 32.9808 12.7217 31.196 12.7638 29.3533C12.6852 27.9288 12.6852 26.4885 12.6852 25.0956C12.6852 24.8851 12.6852 24.6745 12.6852 24.4639C12.6852 24.2533 12.6852 24.0427 12.6852 23.8321C12.6852 22.4392 12.6852 20.9989 12.7638 19.5754C12.722 17.7324 13.4148 15.9475 14.6918 14.608C16.0425 13.3415 17.8423 12.6544 19.7006 12.6958C20.9746 12.6238 22.2577 12.6179 23.3595 12.6179H25.9007C27.0026 12.6179 28.2896 12.6238 29.5607 12.6958C31.4187 12.6541 33.2183 13.3413 34.5684 14.608C35.8454 15.9475 36.5382 17.7324 36.4964 19.5754C36.5741 20.9989 36.5741 22.4392 36.5741 23.8331C36.5741 24.0437 36.5741 24.2543 36.5741 24.4648C36.5741 24.6754 36.5741 24.8857 36.5741 25.0956C36.5741 26.4885 36.5741 27.9288 36.4954 29.3543C36.5375 31.197 35.8447 32.9818 34.5674 34.3207C33.2173 35.5875 31.4177 36.2746 29.5597 36.2329C28.2846 36.3049 27.0016 36.3108 25.8997 36.3108L23.3595 36.3099Z" fill="white"/>
<path d="M30.2097 19.3193C30.4451 19.4753 30.7219 19.5586 31.005 19.5586L31.0059 19.5596C31.3855 19.559 31.7493 19.4091 32.0175 19.1428C32.2857 18.8765 32.4363 18.5154 32.4363 18.139C32.4363 17.8583 32.3523 17.5838 32.1951 17.3504C32.0378 17.1169 31.8142 16.935 31.5527 16.8275C31.2912 16.7201 31.0034 16.692 30.7257 16.7468C30.4481 16.8015 30.193 16.9367 29.9928 17.1353C29.7927 17.3338 29.6563 17.5867 29.6011 17.8621C29.5459 18.1375 29.5742 18.4229 29.6826 18.6823C29.7909 18.9417 29.9744 19.1634 30.2097 19.3193Z" fill="#323238"/>
<path fill-rule="evenodd" clip-rule="evenodd" d="M24.6299 30.5405C23.4181 30.5403 22.2335 30.1838 21.2259 29.5159C20.2184 28.848 19.4332 27.8989 18.9696 26.7884C18.5059 25.678 18.3847 24.4561 18.6213 23.2774C18.8578 22.0986 19.4415 21.0159 20.2985 20.1661C21.1555 19.3163 22.2473 18.7376 23.4359 18.5032C24.6245 18.2688 25.8564 18.3892 26.976 18.8492C28.0956 19.3092 29.0526 20.0881 29.7258 21.0874C30.3991 22.0868 30.7584 23.2617 30.7584 24.4635C30.7568 26.075 30.1107 27.6201 28.9617 28.7596C27.8127 29.8991 26.2548 30.539 24.6299 30.5405ZM24.6299 20.5154C23.8424 20.5154 23.0726 20.747 22.4179 21.1809C21.7631 21.6147 21.2528 22.2314 20.9515 22.953C20.6501 23.6745 20.5713 24.4684 20.7249 25.2344C20.8785 26.0004 21.2577 26.704 21.8145 27.2562C22.3714 27.8084 23.0808 28.1845 23.8531 28.3368C24.6255 28.4892 25.426 28.411 26.1535 28.1121C26.881 27.8133 27.5029 27.3072 27.9404 26.6578C28.3778 26.0085 28.6114 25.245 28.6114 24.4641C28.6114 23.4168 28.1919 22.4124 27.4452 21.6719C26.6985 20.9314 25.6858 20.5154 24.6299 20.5154Z" fill="#323238"/>
</g>
<defs>
<clipPath id="clip0_61385:216">
<rect width="23.8889" height="23.692" fill="white" transform="translate(12.6852 12.6179)"/>
</clipPath>
</defs>
</svg>
