<svg width="48" height="49" viewBox="0 0 48 49" fill="none" xmlns="http://www.w3.org/2000/svg">
<rect x="0.222168" y="0.771973" width="47.7778" height="47.384" fill="#323238"/>
<g clip-path="url(#clip0_61385:205)">
<path d="M36.7372 17.4012C35.8169 17.7867 34.8415 18.041 33.8427 18.1558C34.8961 17.5581 35.6842 16.6177 36.0603 15.5099C35.0716 16.0696 33.9885 16.4636 32.8586 16.6745C32.1684 15.9721 31.2708 15.4832 30.2831 15.2717C29.2953 15.0601 28.2633 15.1356 27.3215 15.4885C26.3797 15.8413 25.572 16.455 25.0037 17.2495C24.4354 18.044 24.1329 18.9824 24.1358 19.9423C24.1338 20.3096 24.1775 20.6759 24.266 21.0335C22.2593 20.9392 20.2962 20.4448 18.5048 19.5825C16.7134 18.7203 15.134 17.5095 13.8698 16.0293C13.2248 17.0831 13.0279 18.3303 13.3192 19.5169C13.6104 20.7035 14.368 21.7402 15.4375 22.4159C14.6337 22.397 13.847 22.1919 13.1462 21.8184V21.8778C13.1456 22.9828 13.5487 24.0538 14.2869 24.9089C15.0251 25.7641 16.0529 26.3506 17.1956 26.5688C16.7626 26.6801 16.316 26.7365 15.8675 26.7365C15.5494 26.7371 15.2321 26.7074 14.9202 26.648C15.2424 27.5983 15.8698 28.4293 16.7149 29.0249C17.5599 29.6204 18.5802 29.9507 19.633 29.9694C17.8467 31.3004 15.6394 32.022 13.3673 32.0179C12.9653 32.0174 12.5637 31.9945 12.1646 31.9491C14.4605 33.3653 17.142 34.1164 19.8812 34.1106C21.7707 34.1232 23.644 33.7796 25.3922 33.0998C27.1404 32.42 28.7286 31.4176 30.0645 30.1509C31.4004 28.8841 32.4573 27.3783 33.1738 25.7209C33.8904 24.0636 34.2522 22.2877 34.2383 20.4966C34.2383 20.2893 34.2383 20.082 34.2223 19.8794C35.2092 19.2014 36.0608 18.3622 36.7372 17.4012V17.4012Z" fill="white"/>
</g>
<defs>
<clipPath id="clip0_61385:205">
<rect width="24.5714" height="18.9536" fill="white" transform="translate(12.1666 15.1561)"/>
</clipPath>
</defs>
</svg>
