<svg width="48" height="49" viewBox="0 0 48 49" fill="none" xmlns="http://www.w3.org/2000/svg">
<rect y="0.771973" width="47.7778" height="47.384" fill="#323238"/>
<g clip-path="url(#clip0_61385:212)">
<path d="M36.3562 19.3414C36.4005 18.3262 36.0514 17.3344 35.3854 16.5836C34.7194 15.8328 33.791 15.3843 32.8038 15.3366C30.1449 15.2085 27.4332 15.1561 24.6637 15.1561H23.8002C21.0359 15.1561 18.319 15.2058 15.66 15.3366C14.6726 15.3876 13.745 15.8385 13.0802 16.5909C12.4153 17.3433 12.0672 18.3357 12.1121 19.3513C11.9927 21.1118 11.9392 22.8652 11.9444 24.623C11.9497 26.3808 11.9927 28.1369 12.1077 29.8992C12.0609 30.9163 12.4078 31.911 13.0726 32.6656C13.7374 33.4203 14.6658 33.8733 15.6547 33.9256C18.448 34.0592 21.3141 34.1179 24.2275 34.1133C27.1457 34.123 30.0033 34.0604 32.8003 33.9256C33.7893 33.8742 34.7181 33.4221 35.3837 32.6682C36.0493 31.9143 36.3974 30.92 36.3518 29.9028C36.4667 28.1405 36.5194 26.3835 36.515 24.6221C36.5244 22.8619 36.4714 21.1016 36.3562 19.3414ZM21.8766 29.4643V19.7664L28.8364 24.6131L21.8766 29.4643Z" fill="white"/>
</g>
<defs>
<clipPath id="clip0_61385:212">
<rect width="24.5714" height="18.9536" fill="white" transform="translate(11.9445 15.1561)"/>
</clipPath>
</defs>
</svg>
